<?xml version="1.0" encoding="UTF-8"?>
<!DOCTYPE svg PUBLIC "-//W3C//DTD SVG 1.1//EN" "http://www.w3.org/Graphics/SVG/1.1/DTD/svg11.dtd">
<!-- Creator: CorelDRAW -->
<svg xmlns="http://www.w3.org/2000/svg" xml:space="preserve" width="21.957mm" height="21.957mm" version="1.1" style="shape-rendering:geometricPrecision; text-rendering:geometricPrecision; image-rendering:optimizeQuality; fill-rule:evenodd; clip-rule:evenodd"
viewBox="0 0 2195.7 2195.7"
 xmlns:xlink="http://www.w3.org/1999/xlink"
 xmlns:xodm="http://www.corel.com/coreldraw/odm/2003">
 <defs>
  <style type="text/css">
   <![CDATA[
    .fil1 {fill:#BCBCBC}
    .fil2 {fill:#BDBDBD}
    .fil0 {fill:whitesmoke}
   ]]>
  </style>
 </defs>
 <g id="Layer_x0020_1">
  <metadata id="CorelCorpID_0Corel-Layer"/>
  <g id="_2508793110336">
   <path class="fil0" d="M984.24 1762.25c23.26,-9.88 191.44,-18.7 227.27,5.91 12.47,71.11 -49.79,61.25 -115.28,61.21 -70.13,-0.04 -127.7,9.79 -111.99,-67.12zm-300.81 -1208.2c31.15,68.56 -4.78,248.17 12.69,330.79 6.31,29.81 59.77,72.13 79.74,91.8 43.02,42.38 27.37,79.22 23.68,153.97l-25.63 499.87c-3.57,73.22 15.82,104.72 86.73,76.92 31.02,-29.69 -15.92,-541.1 -18.48,-653.61 -2.22,-97.5 97.54,-99.75 108.51,-169.37l-0.05 -279.63c2.62,-49.76 37.42,-75.2 62.96,-44.01 25.84,31.57 10.24,220.15 10.47,273.44 0.71,158.01 -27.37,107.53 -93.43,190.16 -29.67,37.12 5.83,436.71 9.58,512.28 4.64,93.48 21.56,190.07 -43.5,232.6 -73.66,48.15 -157.48,13.8 -186.17,-49.79 -26.57,-58.91 18.65,-530.82 19.33,-648.43 0.49,-85.71 -101.02,-86.92 -107.88,-168.65l-0.39 -280.43c-0.21,-58.1 5.98,-78.48 61.84,-67.91zm786.51 517.7c0.8,135.46 11.77,278.33 17.63,414.69 5.47,127.36 41.47,300.1 -112.07,305.69 -158.01,5.75 -125.27,-166.22 -119.61,-297.11 6.07,-140.39 16.81,-284.71 18.14,-424.45 -174.1,-81.44 -119.88,-515.49 93.3,-521.65 132.06,-3.82 167.14,105.46 194.27,218.3 33.37,138.74 1.63,255.84 -91.66,304.53zm-628.61 -466.16c0,-51.51 19.33,-60.28 62.12,-51.26 19.6,46.3 20.12,312.46 -2.25,354.59 -49.53,9.34 -59.87,-0.43 -59.87,-49.3l0 -254.03zm-109.92 0c0,-48.92 21.11,-59.74 61.83,-51.41 22.76,51.39 23.25,307.63 -2.11,355.04 -51.36,9.38 -59.72,0.97 -59.72,-49.6l0 -254.03zm-167.69 112.89c-43.35,72.8 -75.58,88.78 -107.59,228.85 -88.66,388.04 177.63,602.6 182.65,633.74 4.3,26.67 -19.47,79.25 -93.13,-1.33 -212.87,-232.86 -240.96,-618.4 -54.41,-893.23 50,-73.65 100.31,-14.76 72.48,31.97zm1038.42 -44.43c-16.6,-32.8 2.96,-135.3 106.84,21.48 69.94,105.56 119.96,241.33 119.96,401.18 0,267.35 -198.32,585.45 -264.98,513.71 -30.54,-34.61 11.83,-62.14 31.35,-82.22 161.12,-165.81 204.62,-465.98 107.42,-690.73 -46.42,-107.33 -83.67,-130.02 -100.59,-163.42zm-774.33 -198.43c-40.59,-77.34 90.26,-93.07 178.91,-104.27 330.63,-41.73 344.53,100.01 226.35,82.26 -259.87,-39.02 -341.63,41.27 -405.26,22.01zm177.21 -397.68c-533.02,54.74 -985.11,511.56 -927.8,1112.87 50.88,533.79 519.02,984.8 1117.97,926.62 527.21,-51.21 980.92,-521.49 922.18,-1117.19 -51.85,-525.85 -520.35,-983.08 -1112.35,-922.3z"/>
   <path class="fil1" d="M1005.02 77.94c592,-60.78 1060.5,396.45 1112.35,922.3 58.74,595.7 -394.97,1065.98 -922.18,1117.19 -598.95,58.18 -1067.09,-392.83 -1117.97,-926.62 -57.31,-601.31 394.78,-1058.13 927.8,-1112.87zm1186.81 1103.45c52.37,-627.68 -435.87,-1131.52 -1002.16,-1177.58 -635.64,-51.72 -1144.42,431.45 -1186.52,1007.85 -46.52,636.83 433.15,1136.45 1012.63,1180.67 634.89,48.47 1127.96,-434.7 1176.05,-1010.94z"/>
   <path class="fil1" d="M1332.41 1706.81c-24.04,-55.84 -1.52,-252.76 1.93,-330.6 2.56,-58 20.72,-289.85 12.82,-328.7 -11.91,-58.53 -134.96,-30.72 -97.79,-245.49 56.01,-323.63 268.17,-174.95 249.33,92.01 -4.15,58.82 -24.27,88.82 -61.57,111.95 -59.72,37.03 -42.92,47.08 -38.59,129.56 5.76,109.88 9.67,221.16 15,332.24 2.55,53.25 5.02,108.43 7.7,162.61 3.87,78.14 -14.76,104.58 -88.83,76.42zm137.53 -635.06c93.29,-48.69 125.03,-165.79 91.66,-304.53 -27.13,-112.84 -62.21,-222.12 -194.27,-218.3 -213.18,6.16 -267.4,440.21 -93.3,521.65 -1.33,139.74 -12.07,284.06 -18.14,424.45 -5.66,130.89 -38.4,302.86 119.61,297.11 153.54,-5.59 117.54,-178.33 112.07,-305.69 -5.86,-136.36 -16.83,-279.23 -17.63,-414.69z"/>
   <path class="fil1" d="M683.43 554.05c-55.86,-10.57 -62.05,9.81 -61.84,67.91l0.39 280.43c6.86,81.73 108.37,82.94 107.88,168.65 -0.68,117.61 -45.9,589.52 -19.33,648.43 28.69,63.59 112.51,97.94 186.17,49.79 65.06,-42.53 48.14,-139.12 43.5,-232.6 -3.75,-75.57 -39.25,-475.16 -9.58,-512.28 66.06,-82.63 94.14,-32.15 93.43,-190.16 -0.23,-53.29 15.37,-241.87 -10.47,-273.44 -25.54,-31.19 -60.34,-5.75 -62.96,44.01l0.05 279.63c-10.97,69.62 -110.73,71.87 -108.51,169.37 2.56,112.51 49.5,623.92 18.48,653.61 -70.91,27.8 -90.3,-3.7 -86.73,-76.92l25.63 -499.87c3.69,-74.75 19.34,-111.59 -23.68,-153.97 -19.97,-19.67 -73.43,-61.99 -79.74,-91.8 -17.47,-82.62 18.46,-262.23 -12.69,-330.79z"/>
   <path class="fil0" d="M1332.41 1706.81c74.07,28.16 92.7,1.72 88.83,-76.42 -2.68,-54.18 -5.15,-109.36 -7.7,-162.61 -5.33,-111.08 -9.24,-222.36 -15,-332.24 -4.33,-82.48 -21.13,-92.53 38.59,-129.56 37.3,-23.13 57.42,-53.13 61.57,-111.95 18.84,-266.96 -193.32,-415.64 -249.33,-92.01 -37.17,214.77 85.88,186.96 97.79,245.49 7.9,38.85 -10.26,270.7 -12.82,328.7 -3.45,77.84 -25.97,274.76 -1.93,330.6z"/>
   <path class="fil1" d="M1563.96 1610.42c66.66,71.74 264.98,-246.36 264.98,-513.71 0,-159.85 -50.02,-295.62 -119.96,-401.18 -103.88,-156.78 -123.44,-54.28 -106.84,-21.48 16.92,33.4 54.17,56.09 100.59,163.42 97.2,224.75 53.7,524.92 -107.42,690.73 -19.52,20.08 -61.89,47.61 -31.35,82.22z"/>
   <path class="fil1" d="M563.72 718.48c27.83,-46.73 -22.48,-105.62 -72.48,-31.97 -186.55,274.83 -158.46,660.37 54.41,893.23 73.66,80.58 97.43,28 93.13,1.33 -5.02,-31.14 -271.31,-245.7 -182.65,-633.74 32.01,-140.07 64.24,-156.05 107.59,-228.85z"/>
   <path class="fil1" d="M827.81 475.62c63.63,19.26 145.39,-61.03 405.26,-22.01 118.18,17.75 104.28,-123.99 -226.35,-82.26 -88.65,11.2 -219.5,26.93 -178.91,104.27z"/>
   <path class="fil2" d="M731.41 605.59l0 254.03c0,50.57 8.36,58.98 59.72,49.6 25.36,-47.41 24.87,-303.65 2.11,-355.04 -40.72,-8.33 -61.83,2.49 -61.83,51.41z"/>
   <path class="fil2" d="M841.33 605.59l0 254.03c0,48.87 10.34,58.64 59.87,49.3 22.37,-42.13 21.85,-308.29 2.25,-354.59 -42.79,-9.02 -62.12,-0.25 -62.12,51.26z"/>
   <path class="fil1" d="M984.24 1762.25c-15.71,76.91 41.86,67.08 111.99,67.12 65.49,0.04 127.75,9.9 115.28,-61.21 -35.83,-24.61 -204.01,-15.79 -227.27,-5.91z"/>
  </g>
 </g>
</svg>
